<?xml version="1.0" encoding="UTF-8"?>
<svg version="1.1" xmlns="http://www.w3.org/2000/svg" width="460" height="492">
<path d="M0 0 C6.40077293 14.75513165 12.02166434 29.24664319 15.6875 44.9375 C15.99143677 46.22297729 15.99143677 46.22297729 16.30151367 47.53442383 C19.47600646 61.73554445 20.41302418 75.81371563 20.375 90.3125 C20.37412384 91.13671448 20.37324768 91.96092896 20.37234497 92.81011963 C20.1749302 149.53305434 -2.6585894 200.91259798 -42.0625 241.3125 C-47.1014874 246.23112942 -52.47180171 250.64626332 -58 255 C-59.44439453 256.18722656 -59.44439453 256.18722656 -60.91796875 257.3984375 C-69.99886845 264.69538352 -79.7842923 270.43347294 -90 276 C-90.67933594 276.37398926 -91.35867188 276.74797852 -92.05859375 277.13330078 C-117.30909327 290.89533108 -148.97918334 300.92052674 -178 300 C-178.1396286 284.63440999 -177.80661707 269.34503163 -177 254 C-175.73929687 253.85304688 -174.47859375 253.70609375 -173.1796875 253.5546875 C-152.93327596 251.03048496 -134.30791573 246.05159383 -116 237 C-115.3498291 236.68836914 -114.6996582 236.37673828 -114.02978516 236.05566406 C-98.4810307 228.56849313 -85.37671018 217.91071958 -73 206 C-72.3090625 205.37222656 -71.618125 204.74445313 -70.90625 204.09765625 C-57.68556199 191.71680703 -46.80743713 174.72498132 -40 158 C-41.23137695 157.61336182 -42.46275391 157.22672363 -43.73144531 156.82836914 C-49.74152128 154.82186147 -55.49834999 152.28995403 -61.296875 149.74609375 C-62.44867249 149.24457291 -63.60046997 148.74305206 -64.78717041 148.22633362 C-67.82442154 146.90316591 -70.86024151 145.57678821 -73.89532471 144.24865723 C-78.18041298 142.37453925 -82.4682253 140.50665931 -86.75567627 138.63795471 C-89.03220241 137.64529226 -91.30822409 136.6514719 -93.5836792 135.65635681 C-94.61535217 135.20571365 -95.64702515 134.7550705 -96.70996094 134.29077148 C-97.61325134 133.89566879 -98.51654175 133.5005661 -99.44720459 133.0934906 C-101.9498226 132.0214935 -104.46789399 131.00009389 -107 130 C-107.78310547 131.28970703 -107.78310547 131.28970703 -108.58203125 132.60546875 C-122.76258301 155.5588457 -140.4685788 171.35310584 -167.01171875 178.30859375 C-183.43133206 182.10764154 -202.08066119 181.7160042 -218 176 C-219.19367188 175.57589844 -220.38734375 175.15179688 -221.6171875 174.71484375 C-244.5364899 165.71262322 -261.35278604 148.20121502 -271.1953125 125.91943359 C-280.7564561 103.11308925 -279.9082212 78.79019924 -271 56 C-261.92344427 34.44318014 -245.00858644 18.04804144 -223.8125 8.5625 C-200.42840817 -0.80171777 -175.08350769 -0.35365944 -151.8828125 9.21484375 C-130.96329059 18.46550429 -116.6904728 35.2681167 -106 55 C-92.2758401 47.94437824 -78.59273797 40.84097688 -65.07177734 33.40136719 C-58.59276858 29.84505096 -52.06206505 26.40036289 -45.5 23 C-35.89268276 18.01948945 -26.37094841 12.89504448 -16.8828125 7.69140625 C-16.07102539 7.24684082 -15.25923828 6.80227539 -14.42285156 6.34423828 C-12.76564865 5.42479458 -11.11684428 4.49009288 -9.47558594 3.54248047 C-8.27724121 2.85436279 -8.27724121 2.85436279 -7.0546875 2.15234375 C-6.34554199 1.73847412 -5.63639648 1.32460449 -4.90576172 0.89819336 C-3 0 -3 0 0 0 Z " fill="#999999" transform="translate(440,157)"/>
<path d="M0 0 C7.13271951 3.85516101 11.66170862 9.11381034 14.33984375 16.765625 C16.4563815 25.33196713 15.12973651 32.72141336 11 40.4375 C7.0748165 46.3813493 1.46310265 50.28435386 -5.44921875 52.0703125 C-8.11044493 52.45339866 -10.62541561 52.53582779 -13.3125 52.5 C-14.19550781 52.49097656 -15.07851563 52.48195312 -15.98828125 52.47265625 C-16.65214844 52.46105469 -17.31601562 52.44945312 -18 52.4375 C-17.24074219 53.46230469 -16.48148437 54.48710938 -15.69921875 55.54296875 C-14.69519622 56.90356003 -13.69129644 58.2642419 -12.6875 59.625 C-12.18798828 60.29853516 -11.68847656 60.97207031 -11.17382812 61.66601562 C-4 71.40531871 -4 71.40531871 -4 74.4375 C-6.2121582 76.0222168 -6.2121582 76.0222168 -9.30078125 77.88671875 C-10.42419922 78.57056641 -11.54761719 79.25441406 -12.70507812 79.95898438 C-13.90737864 80.68127836 -15.10985351 81.40328221 -16.3125 82.125 C-18.04861616 83.17539268 -19.78347021 84.22784151 -21.51803589 85.28079224 C-22.66359525 85.97563905 -23.81001845 86.6690637 -24.95730591 87.36105347 C-29.66436605 90.20698891 -34.28359493 93.17723668 -38.87963867 96.19848633 C-41 97.4375 -41 97.4375 -43 97.4375 C-44.4315287 95.50660083 -45.75475629 93.57490715 -47.0625 91.5625 C-50.64135926 86.21899343 -54.4882691 81.40909165 -58.890625 76.703125 C-60.80259648 74.64952601 -62.58788323 72.53656029 -64.375 70.375 C-67.98474937 66.1975201 -72.19682687 62.89359534 -76.546875 59.515625 C-78.79260126 57.61319447 -80.29392094 55.80671059 -82 53.4375 C-65.74285575 26.27346307 -65.74285575 26.27346307 -59 15.4375 C-55.87378898 16.87329375 -53.31999255 18.61764624 -50.625 20.75 C-49.84511719 21.36617187 -49.06523437 21.98234375 -48.26171875 22.6171875 C-45.47821561 24.85745082 -42.72759891 27.12953169 -40 29.4375 C-39.98582031 28.75945312 -39.97164063 28.08140625 -39.95703125 27.3828125 C-39.5134662 18.72729993 -37.19588294 12.20700295 -31.5625 5.5625 C-22.58404512 -1.88304795 -11.2035071 -4.53567589 0 0 Z " fill="#C1272D" transform="translate(432,63.5625)"/>
<path d="M0 0 C1.43572269 1.90923799 2.75631336 3.81717675 4.0625 5.8125 C12.39439716 18.13191279 22.46747555 31.6449837 35 40 C34.34377013 43.46435314 32.9653584 45.9747425 31.12109375 48.96484375 C30.53279785 49.92447021 29.94450195 50.88409668 29.33837891 51.87280273 C28.71108887 52.88415283 28.08379883 53.89550293 27.4375 54.9375 C26.80505371 55.96625244 26.17260742 56.99500488 25.52099609 58.05493164 C23.68515012 61.03941481 21.84289538 64.01986668 20 67 C19.0969582 68.46832092 18.19451569 69.93701077 17.29296875 71.40625 C15.53320656 74.27366057 13.76875867 77.1381265 12 80 C9.21142906 78.7070307 6.97377331 77.29514531 4.65234375 75.28515625 C4.04712891 74.76373047 3.44191406 74.24230469 2.81835938 73.70507812 C2.19767578 73.16302734 1.57699219 72.62097656 0.9375 72.0625 C0.31294922 71.52431641 -0.31160156 70.98613281 -0.95507812 70.43164062 C-3.72822068 68.03140731 -6.42824703 65.61718518 -9 63 C-9.09796875 63.7734375 -9.1959375 64.546875 -9.296875 65.34375 C-10.7355257 75.36469626 -12.83131665 82.04708951 -20.875 88.5234375 C-27.71477535 93.27607552 -34.79443362 93.96345041 -43 93 C-50.66540964 90.89972522 -57.28312384 86.22412604 -61.375 79.375 C-64.74018888 72.38576156 -65.12753034 64.80219248 -63.3515625 57.23828125 C-60.62119926 49.61893425 -56.08332833 44.37449392 -48.9375 40.5625 C-42.87924264 38.09081514 -36.41988871 38.67124325 -30 39 C-30.71027344 37.95199219 -31.42054687 36.90398437 -32.15234375 35.82421875 C-33.08091199 34.44543561 -34.00928738 33.06652257 -34.9375 31.6875 C-35.40607422 30.99720703 -35.87464844 30.30691406 -36.35742188 29.59570312 C-36.80537109 28.92861328 -37.25332031 28.26152344 -37.71484375 27.57421875 C-38.12855225 26.96151123 -38.54226074 26.34880371 -38.96850586 25.7175293 C-40 24 -40 24 -41 21 C-30.43728959 15.21239518 -19.87149651 9.42920149 -9.25 3.75 C-8.54238525 3.36787354 -7.83477051 2.98574707 -7.10571289 2.59204102 C-2.23223984 0 -2.23223984 0 0 0 Z " fill="#C1272D" transform="translate(113,334)"/>
<path d="M0 0 C6.02157419 4.44091096 10.81081928 10.11801955 12.1875 17.61328125 C12.40506053 21.62826196 12.36820182 25.59768515 12.1875 29.61328125 C13.07953125 28.90300781 13.9715625 28.19273438 14.890625 27.4609375 C16.07264562 26.53220701 17.25495236 25.60384059 18.4375 24.67578125 C19.02402344 24.20720703 19.61054687 23.73863281 20.21484375 23.25585938 C23.18078639 20.9397581 25.50032835 19.3458087 29.1875 18.61328125 C29.60523682 19.34329346 30.02297363 20.07330566 30.45336914 20.82543945 C32.03738572 23.59063798 33.62377573 26.35445825 35.21166992 29.11743164 C35.89227853 30.30277562 36.57199844 31.48863043 37.25073242 32.67504883 C41.28408686 39.72371635 45.41336834 46.6473401 49.93530273 53.39526367 C51.1875 55.61328125 51.1875 55.61328125 51.1875 58.61328125 C49.01953125 60.453125 49.01953125 60.453125 46 62.55078125 C34.61194636 70.75549964 20.58130474 81.82567176 14.1875 94.61328125 C10.71012414 93.91882884 7.88746091 92.55215167 4.75 90.91796875 C3.68910156 90.36625 2.62820312 89.81453125 1.53515625 89.24609375 C0.43042969 88.66601562 -0.67429688 88.0859375 -1.8125 87.48828125 C-2.88628906 86.93140625 -3.96007812 86.37453125 -5.06640625 85.80078125 C-12.44740533 81.94596344 -19.65648496 77.86982082 -26.8125 73.61328125 C-25.55890057 70.13621016 -24.16241989 67.50443769 -21.80859375 64.66015625 C-20.94524414 63.60828125 -20.94524414 63.60828125 -20.06445312 62.53515625 C-19.16629883 61.46007812 -19.16629883 61.46007812 -18.25 60.36328125 C-17.64736328 59.63109375 -17.04472656 58.89890625 -16.42382812 58.14453125 C-12.08705357 52.88783482 -12.08705357 52.88783482 -10.8125 51.61328125 C-12.0809375 51.46632813 -12.0809375 51.46632813 -13.375 51.31640625 C-23.84176115 49.93669683 -30.60888217 48.06520237 -37.3359375 39.6640625 C-42.54605114 32.42779355 -42.81997783 25.3871416 -41.8125 16.61328125 C-39.59965055 8.82020274 -34.48085964 3.08075371 -27.8125 -1.38671875 C-18.82557749 -5.12616127 -8.44645025 -4.93172671 0 0 Z " fill="#C1272D" transform="translate(106.8125,56.38671875)"/>
<path d="M0 0 C4.94386384 0.66968673 9.11780335 2.73423937 13.625 4.75 C26.28564979 10.25077458 39.43512905 13.55387573 53 16 C53.22059963 31.34392996 52.56291843 46.66945556 52 62 C49.41626766 61.69055299 46.83304867 61.37756043 44.25 61.0625 C43.15558594 60.93198242 43.15558594 60.93198242 42.0390625 60.79882812 C38.62415558 60.37972591 35.32396457 59.882726 32 59 C32.31324219 59.55429687 32.62648437 60.10859375 32.94921875 60.6796875 C36.02939684 67.48127035 35.37049965 74.90975991 32.9375 81.78515625 C29.85208988 89.07443766 24.70324914 93.66431865 17.6953125 97.14453125 C10.41870974 99.45406169 1.36938588 99.14007341 -5.5625 95.9375 C-12.66101698 91.76328902 -17.44333286 85.5190926 -19.6875 77.5625 C-20.66133659 69.57703993 -19.99528125 62.03046025 -15.08984375 55.4296875 C-13.12304486 53.20945355 -11.11257683 51.08117972 -9 49 C-8.34 48.34 -7.68 47.68 -7 47 C-12.28 44.36 -17.56 41.72 -23 39 C-21.38181798 34.95454496 -19.75307795 31.76817424 -17.48046875 28.10546875 C-16.78759766 26.98462891 -16.09472656 25.86378906 -15.38085938 24.70898438 C-14.64981893 23.53510683 -13.91869862 22.36127902 -13.1875 21.1875 C-12.4677419 20.02561173 -11.74833774 18.86350414 -11.02929688 17.70117188 C-7.36970111 11.79029289 -3.68913956 5.89247635 0 0 Z " fill="#C1272D" transform="translate(176,394)"/>
<path d="M0 0 C7.09851698 4.17421098 11.88083286 10.4184074 14.125 18.375 C15.10222164 26.38821742 14.35455236 33.78291028 9.6328125 40.5078125 C6.17887286 44.56130393 3.56502208 47.22237066 -1.5625 48.9375 C-1.5625 49.5975 -1.5625 50.2575 -1.5625 50.9375 C-0.63630859 51.17533203 -0.63630859 51.17533203 0.30859375 51.41796875 C6.59238949 53.149121 11.86292191 55.59290573 17.4375 58.9375 C12.9796293 67.17278567 8.4386956 75.35808006 3.8125 83.5 C3.48443359 84.08821533 3.15636719 84.67643066 2.81835938 85.2824707 C1.8553324 87.00789404 0.87709207 88.72479859 -0.1015625 90.44140625 C-0.95548584 91.95456421 -0.95548584 91.95456421 -1.82666016 93.49829102 C-3.61998506 96.01827824 -4.6225324 97.04721788 -7.5625 97.9375 C-10.6015625 96.99609375 -10.6015625 96.99609375 -14.1875 95.375 C-26.79518075 89.93752717 -40.17689018 86.84638694 -53.5625 83.9375 C-54.37224903 81.09436669 -54.68491859 78.58047035 -54.67602539 75.62792969 C-54.67594986 74.78736023 -54.67587433 73.94679077 -54.67579651 73.08074951 C-54.67063522 72.18269592 -54.66547394 71.28464233 -54.66015625 70.359375 C-54.6587413 69.4328009 -54.65732635 68.50622681 -54.65586853 67.55157471 C-54.65027824 64.59685008 -54.6377275 61.64220167 -54.625 58.6875 C-54.61998375 56.68229276 -54.61542106 54.67708433 -54.61132812 52.671875 C-54.60031199 47.76038737 -54.583054 42.8489566 -54.5625 37.9375 C-51.95783457 38.24622329 -49.35382309 38.55931723 -46.75 38.875 C-46.01201172 38.96201172 -45.27402344 39.04902344 -44.51367188 39.13867188 C-41.39516879 39.51966546 -38.55141878 39.94119374 -35.5625 40.9375 C-36.201875 39.844375 -36.84125 38.75125 -37.5 37.625 C-40.86060598 30.81977289 -41.37433731 23.93027095 -39.375 16.625 C-36.37551902 8.14878812 -31.27083878 2.77231909 -23.2578125 -1.20703125 C-15.98120974 -3.51656169 -6.93188588 -3.20257341 0 0 Z " fill="#C1272D" transform="translate(326.5625,2.0625)"/>
<path d="M0 0 C5.19088894 3.85914402 9.75534831 9.07524719 11.0859375 15.55078125 C11.76113345 24.02824157 11.49251374 29.60210336 8.0859375 37.55078125 C14.3559375 37.22078125 20.6259375 36.89078125 27.0859375 36.55078125 C27.0859375 51.40078125 27.0859375 66.25078125 27.0859375 81.55078125 C22.1359375 82.54078125 22.1359375 82.54078125 17.0859375 83.55078125 C-0.40692869 87.03005108 -0.40692869 87.03005108 -17.26953125 92.73046875 C-20.24432075 93.65322472 -21.10575277 93.81158776 -23.9140625 92.55078125 C-25.40725661 90.51941941 -26.62701983 88.61201979 -27.84765625 86.42578125 C-28.20747086 85.80485596 -28.56728546 85.18393066 -28.93800354 84.54418945 C-30.08795084 82.55306387 -31.21978779 80.55228111 -32.3515625 78.55078125 C-33.10887045 77.23370987 -33.86732255 75.91729566 -34.62695312 74.6015625 C-38.45451619 67.95472745 -42.21784612 61.27158861 -45.9140625 54.55078125 C-40.66221419 51.83107409 -35.48338707 49.53982574 -29.9140625 47.55078125 C-30.51734375 47.02871094 -31.120625 46.50664063 -31.7421875 45.96875 C-38.88354693 39.39178833 -42.90470304 32.79106326 -43.3515625 22.92578125 C-42.85861414 14.53072136 -39.97416083 8.54999236 -34.12890625 2.50390625 C-24.82283312 -5.70250744 -10.60689164 -6.25489457 0 0 Z " fill="#C1272D" transform="translate(210.9140625,3.44921875)"/>
<path d="M0 0 C3.95905823 3.00410951 5.96978958 6.53238774 8.1796875 10.8671875 C8.56640625 9.86816406 8.953125 8.86914062 9.3515625 7.83984375 C9.87679833 6.53613339 10.4028844 5.23276535 10.9296875 3.9296875 C11.30867188 2.9406543 11.30867188 2.9406543 11.6953125 1.93164062 C13.65341395 -2.84123165 13.65341395 -2.84123165 15.83520508 -4.05004883 C19.51437305 -4.17992886 22.26407134 -2.35124087 25.39453125 -0.6171875 C26.08728653 -0.24555481 26.78004181 0.12607788 27.49378967 0.50897217 C29.70790415 1.70042419 31.91237846 2.90861838 34.1171875 4.1171875 C35.59772073 4.91645208 37.07883477 5.71464176 38.56054688 6.51171875 C49.77393551 12.56385203 49.77393551 12.56385203 55.1796875 15.8671875 C54.61047909 20.06819303 53.60050849 23.54344248 51.9296875 27.4296875 C49.54879868 33.43035787 47.91008614 39.4614268 46.4296875 45.7421875 C46.21924805 46.63365479 46.00880859 47.52512207 45.79199219 48.44360352 C44.68579709 53.26985487 43.88405181 57.93663735 43.1796875 62.8671875 C27.9996875 62.8671875 12.8196875 62.8671875 -2.8203125 62.8671875 C-1.8203125 48.8671875 -1.8203125 48.8671875 -0.8203125 44.8671875 C-1.30757812 45.1559375 -1.79484375 45.4446875 -2.296875 45.7421875 C-9.93100208 49.73969404 -18.19900845 50.37534224 -26.54296875 48.13671875 C-31.22593703 46.22131436 -34.51030527 43.74462454 -37.8203125 39.8671875 C-38.5421875 39.0628125 -39.2640625 38.2584375 -40.0078125 37.4296875 C-44.78750152 30.67219612 -44.65411554 22.82781234 -43.8203125 14.8671875 C-41.6719877 7.48294551 -37.23387816 2.0348475 -30.8203125 -2.1328125 C-20.43252955 -7.38295551 -9.71593969 -6.04640024 0 0 Z " fill="#C1272D" transform="translate(46.8203125,164.1328125)"/>
<path d="M0 0 C15.18 0 30.36 0 46 0 C46.99 6.93 47.98 13.86 49 21 C50.92276509 28.22882137 50.92276509 28.22882137 53.01171875 35.41015625 C54 39 54 39 54 43 C53.38181396 43.32162109 52.76362793 43.64324219 52.12670898 43.97460938 C49.22990001 45.48229427 46.33370952 46.99116391 43.4375 48.5 C42.39368164 49.04301758 41.34986328 49.58603516 40.27441406 50.14550781 C35.5786787 52.59249965 30.88849983 55.04549781 26.23828125 57.578125 C25.55386963 57.95001953 24.86945801 58.32191406 24.16430664 58.70507812 C22.36194453 59.68889522 20.56364393 60.68014259 18.765625 61.671875 C16 63 16 63 13 63 C11.35 58.38 9.7 53.76 8 49 C6.865625 50.4025 5.73125 51.805 4.5625 53.25 C-0.66027068 59.0278038 -4.83309417 61.57343098 -12.625 62.37109375 C-20.01177971 62.61292285 -25.90676884 62.37618597 -32 58 C-33.3303125 57.13375 -33.3303125 57.13375 -34.6875 56.25 C-40.97343015 50.13395986 -43.12642524 43.99863216 -43.375 35.375 C-43.29196878 27.37909362 -41.45658302 21.96755616 -36.203125 15.9375 C-30.56266447 10.52265789 -24.40632368 8.00635447 -16.625 7.5625 C-11.49648719 7.72559758 -3.73934525 9.26065475 0 13 C0 8.71 0 4.42 0 0 Z " fill="#C1272D" transform="translate(43,261)"/>
</svg>
